pl05
version=1
nRows=6
nColumns=43
inDegrees=yes
endheader
time	pelvis_tilt	pelvis_list	pelvis_rotation	pelvis_tx	pelvis_ty	pelvis_tz	hip_flexion_r	hip_adduction_r	hip_rotation_r	knee_angle_r	ankle_angle_r	subtalar_angle_r	mtp_angle_r	hip_flexion_l	hip_adduction_l	hip_rotation_l	knee_angle_l	ankle_angle_l	subtalar_angle_l	mtp_angle_l	lumbar_extension	lumbar_bending	lumbar_rotation	neck_flexion	neck_lateral_bending	neck_rotation	arm_flex_r	arm_add_r	arm_rot_r	elbow_flex_r	pro_sup_r	wrist_flex_r	wrist_dev_r	hand_finger_flex_r	arm_flex_l	arm_add_l	arm_rot_l	elbow_flex_l	pro_sup_l	wrist_flex_l	wrist_dev_l	hand_finger_flex_l
      3.91750000	     -1.53088662	    -10.94099348	     91.96121525	     -0.01106628	      0.48025113	      0.42092403	     96.06327878	    -17.19633388	      2.40393209	   -126.17720506	     13.94879479	     24.49639905	     24.00383758	     94.94209398	    -11.07159620	      1.96159369	   -125.05850837	      9.27142011	     23.98325072	     38.81638265	    -57.10704046	     -3.46855180	     -4.47684286	     14.99983207	     10.10879297	     -3.66118858	    135.12040912	    -11.50748549	     35.91721368	     27.54507259	    124.20406573	     -1.79652486	    -10.96979401	    -34.96752099	    142.50015200	     -7.67950047	     54.95461798	     32.80525355	    127.29646961	    -12.88662577	     -9.43615702	    -17.77224622
      3.92000000	     -1.53538279	    -11.03402681	     91.95545294	     -0.01128056	      0.48127357	      0.42063680	     95.94243929	    -17.21409039	      2.39126667	   -125.96806816	     13.93754043	     24.51134950	     24.01352659	     94.85303428	    -11.10722337	      1.86857712	   -124.87818694	      9.24678453	     23.98997898	     38.82314074	    -56.95378158	     -3.45042487	     -4.44915385	     15.03682413	     10.10126125	     -3.66968447	    135.06134148	    -11.54922468	     35.95427588	     27.46891469	    124.23648283	     -1.76169753	    -10.93791115	    -34.96773644	    142.40855715	     -7.70385820	     55.03744094	     32.75872560	    127.31854649	    -12.85267978	     -9.43518230	    -17.77614510
      3.92250000	     -1.53231819	    -11.05317007	     91.94267681	     -0.01142046	      0.48174514	      0.42026268	     95.91655410	    -17.21671794	      2.39011365	   -125.96157155	     13.93515061	     24.51264874	     24.01455183	     94.82705143	    -11.11339386	      1.86368343	   -124.87586790	      9.24216671	     23.99045714	     38.82384403	    -56.90125145	     -3.44112022	     -4.46239629	     15.03669048	     10.10069709	     -3.67114117	    135.08360955	    -11.60821422	     35.94414839	     27.44579290	    124.23976784	     -1.76376991	    -10.92760550	    -34.96816497	    142.41799490	     -7.75329916	     55.03401266	     32.73007799	    127.31996580	    -12.85104490	     -9.42738214	    -17.77676511
      3.92500000	     -1.55291822	    -11.19839160	     91.90873757	     -0.01153055	      0.48297179	      0.42038871	     95.85389861	    -17.23643576	      2.30727458	   -125.68647785	     13.86543294	     24.54938106	     24.04996370	     94.76576051	    -11.19754493	      1.69616702	   -124.61390084	      9.07992299	     23.99085543	     38.84820483	    -56.78117471	     -3.45104219	     -4.42703062	     14.95766841	     10.09013532	     -3.72586766	    135.18677607	    -11.64915250	     36.09528006	     27.34250184	    124.42425664	     -1.66431820	    -10.84795189	    -34.96540519	    142.48234309	     -7.78598053	     55.23200286	     32.67772643	    127.40950995	    -12.78818075	     -9.42497703	    -17.79777569
      3.92750000	     -1.54744689	    -11.20849173	     91.89669113	     -0.01167235	      0.48340936	      0.42002553	     95.82690243	    -17.23408003	      2.31251890	   -125.68005249	     13.86256753	     24.54984263	     24.05095845	     94.74534751	    -11.20014274	      1.69405316	   -124.62098483	      9.07416755	     23.99019663	     38.84890386	    -56.73016359	     -3.44136150	     -4.44138735	     14.96133776	     10.08907545	     -3.72693639	    135.20068469	    -11.70539204	     36.08687762	     27.31938688	    124.42782044	     -1.66537107	    -10.83864749	    -34.96570323	    142.48373176	     -7.83587085	     55.23041690	     32.64703299	    127.41073776	    -12.78521618	     -9.41708820	    -17.79805604
      3.93000000	     -1.54285419	    -11.27083164	     91.89055054	     -0.01188193	      0.48420304	      0.41983540	     95.70681714	    -17.20619909	      2.31537091	   -125.50492187	     13.84133097	     24.55615143	     24.06142996	     94.69601739	    -11.21316261	      1.60217856	   -124.53418321	      9.01413507	     23.97734891	     38.85618187	    -56.58706584	     -3.41330122	     -4.42107599	     14.98875114	     10.08010339	     -3.73686085	    135.13586244	    -11.72402640	     36.15589256	     27.25325489	    124.49277360	     -1.61834321	    -10.81133711	    -34.96181018	    142.40115177	     -7.87438900	     55.32694485	     32.58474519	    127.44343631	    -12.73934027	     -9.41406627	    -17.79709926
